HIERARCHY
ROOT hip
{
	OFFSET 0.000000 0.000000 0.000000 
	CHANNELS 6 Xposition Yposition Zposition Xrotation Zrotation Yrotation
	JOINT abdomen
	{
		OFFSET 0.000000 3.402643 0.000000 
		CHANNELS 3 Xrotation Zrotation Yrotation
		JOINT chest
		{
			OFFSET 0.000000 8.438565 -0.680529 
			CHANNELS 3 Xrotation Zrotation Yrotation
			JOINT neck
			{
				OFFSET 0.000000 10.207942 -0.272212 
				CHANNELS 3 Xrotation Zrotation Yrotation
				JOINT head
				{
					OFFSET 0.000000 3.130431 0.000000 
					CHANNELS 3 Xrotation Zrotation Yrotation
					End Site
					{
						OFFSET 0.000000 3.130435 0.000000 
					}
				}
			}
			JOINT lCollar
			{
				OFFSET 3.470700 6.669187 -0.816635 
				CHANNELS 3 Yrotation Zrotation Xrotation
				JOINT lShldr
				{
					OFFSET 3.198488 0.000000 0.000000 
					CHANNELS 3 Zrotation Yrotation Xrotation
					JOINT lForeArm
					{
						OFFSET 10.139888 0.000000 0.000000 
						CHANNELS 3 Yrotation Zrotation Xrotation
						JOINT lHand
						{
							OFFSET 8.370511 0.000000 0.000000 
							CHANNELS 3 Zrotation Yrotation Xrotation
							End Site
							{
								OFFSET 4.083176 0.000000 0.000000 
							}
						}
					}
				}
			}
			JOINT rCollar
			{
				OFFSET -3.470700 6.669187 -0.816635 
				CHANNELS 3 Yrotation Zrotation Xrotation
				JOINT rShldr
				{
					OFFSET -3.198488 0.000000 0.000000 
					CHANNELS 3 Zrotation Yrotation Xrotation
					JOINT rForeArm
					{
						OFFSET -10.139888 0.000000 0.000000 
						CHANNELS 3 Yrotation Zrotation Xrotation
						JOINT rHand
						{
							OFFSET -8.370511 0.000000 0.000000 
							CHANNELS 3 Zrotation Yrotation Xrotation
							End Site
							{
								OFFSET -4.083176 0.000000 0.000000 
							}
						}
					}
				}
			}
		}
	}
	JOINT lThigh
	{
		OFFSET 5.308129 -1.633274 1.361059 
		CHANNELS 3 Xrotation Zrotation Yrotation
		JOINT lShin
		{
			OFFSET -2.041588 -20.007561 0.000000 
			CHANNELS 3 Xrotation Zrotation Yrotation
			JOINT lFoot
			{
				OFFSET 0.000000 -19.190928 -1.224953 
				CHANNELS 3 Xrotation Yrotation Zrotation
				End Site
				{
					OFFSET 0.000000 -2.449906 4.627600 
				}
			}
		}
	}
	JOINT rThigh
	{
		OFFSET -5.308129 -1.633274 1.361059 
		CHANNELS 3 Xrotation Zrotation Yrotation
		JOINT rShin
		{
			OFFSET 2.041588 -20.007561 0.000000 
			CHANNELS 3 Xrotation Zrotation Yrotation
			JOINT rFoot
			{
				OFFSET 0.000000 -19.190928 -1.224953 
				CHANNELS 3 Xrotation Yrotation Zrotation
				End Site
				{
					OFFSET 0.000000 -2.449906 4.627600 
				}
			}
		}
	}
}
MOTION
Frames: 10
Frame Time: 0.016667
-0.693780 44.225784 2.234372 -1.765280 -5.270950 1.284580 -21.870199 3.335800 2.585700 14.414700 3.116810 1.579330 17.969563 -6.014154 -12.589699 14.713500 11.230300 -2.793830 2.000000 -2.000000 0.000000 86.890198 165.412994 2.826910 39.131302 -0.320900 0.086339 0.070100 -0.069216 -162.477997 -2.000000 2.000000 0.000000 61.437599 41.954102 149.563995 -15.547100 0.346561 0.036647 -0.111601 -0.113057 -86.970703 -2.112847 2.185500 0.699341 19.818058 3.984061 1.316249 -9.037306 4.515928 0.056294 0.477417 9.123857 -1.799981 12.647285 -2.769002 -1.052929 -6.014958 -5.008992 -1.152609 
-0.686808 44.218178 2.221982 -1.912510 -5.309560 1.084490 -21.795099 3.379490 2.897530 14.445500 2.864520 1.754370 17.977486 -6.339831 -12.832689 14.736100 11.296700 -2.914300 2.000000 -2.000000 0.000000 86.948799 165.472000 2.602440 39.092201 -0.320959 0.086267 0.069900 -0.068797 -162.311996 -2.000000 2.000000 0.000000 63.993198 43.062302 152.018005 -15.478700 0.346605 0.036489 -0.115224 -0.116013 -85.300797 -1.971865 2.183377 0.907935 19.848492 3.979074 1.305486 -9.173437 4.841168 0.108584 0.596870 9.146435 -1.759828 12.738702 -2.806559 -1.045230 -6.121402 -4.772395 -1.085199 
-0.718166 44.217403 2.188314 -1.961760 -5.377720 1.267100 -21.742800 3.354350 3.025090 14.495300 2.680270 1.815420 17.793699 -6.699748 -13.034549 14.628200 11.339300 -3.045500 2.000000 -2.000000 0.000000 87.095299 165.531006 2.358430 38.769901 -0.321442 0.085669 0.069935 -0.068871 -162.341995 -2.000000 2.000000 0.000000 65.849098 45.048000 155.076004 -15.556800 0.346555 0.036669 -0.115288 -0.116064 -85.271500 -2.039153 2.331976 0.918148 19.937147 3.986277 1.316033 -9.137909 4.776243 0.097476 0.747500 9.289302 -1.522939 12.480107 -2.798414 -1.038069 -6.076662 -5.018001 -1.138854 
-0.749525 44.216633 2.154635 -2.011030 -5.445880 1.449840 -21.690599 3.325730 3.143390 14.535300 2.486220 1.876750 17.631708 -7.056541 -13.235254 14.529800 11.371800 -3.176660 2.000000 -2.000000 0.000000 87.251503 165.591003 2.124190 38.457401 -0.321908 0.085086 0.069970 -0.068945 -162.371002 -2.000000 2.000000 0.000000 -112.080002 133.044998 -21.664000 -15.634900 0.346505 0.036849 -0.115352 -0.116115 -85.242203 -2.089507 2.466118 0.946428 20.009554 3.974232 1.323306 -9.102890 4.703005 0.104792 0.913747 9.436717 -1.262813 12.165231 -2.770734 -1.020582 -6.012329 -5.276342 -1.153471 
-0.784805 44.232235 2.094129 -1.864130 -5.524440 1.682600 -21.757900 3.332890 3.190500 14.496700 2.379220 1.905910 17.645657 -7.335364 -13.515701 14.534000 11.477500 -3.292260 2.000000 -2.000000 0.000000 87.261299 165.630997 1.684830 37.881199 -0.322757 0.084005 0.069689 -0.068352 -162.136993 -2.000000 2.000000 0.000000 -111.332001 130.949005 -15.597100 -16.728701 0.345778 0.039355 -0.105579 -0.107731 -89.841797 -2.438453 2.566943 0.683368 20.157520 3.981360 1.324477 -9.122017 4.828576 0.122089 0.876951 9.542621 -1.193007 11.748648 -2.705101 -1.001678 -5.667452 -5.403460 -1.181197 
-0.820083 44.247704 2.033635 -1.717190 -5.602970 1.905190 -21.815001 3.334540 3.251270 14.448300 2.272200 1.944590 17.678778 -7.629991 -13.795936 14.537800 11.573500 -3.411540 2.000000 -2.000000 0.000000 87.271004 165.681000 1.235730 37.305099 -0.323596 0.082916 0.069411 -0.067757 -161.901993 -2.000000 2.000000 0.000000 -110.205002 128.912994 -9.217620 -17.812700 0.345010 0.041825 -0.096509 -0.098591 -94.441399 -2.771652 2.685013 0.419832 20.299356 3.972359 1.341674 -9.120388 4.932830 0.116919 0.787568 9.671193 -1.119443 11.427735 -2.660810 -0.992945 -5.390756 -5.549841 -1.188218 
-0.850512 44.259945 1.976298 -1.471850 -5.593870 2.193600 -21.844000 3.262650 3.226370 14.517200 2.165660 1.929290 17.791996 -7.832716 -14.020324 14.630200 11.637200 -3.487050 2.000000 -2.000000 0.000000 87.271103 165.817993 0.962605 37.080502 -0.323920 0.082489 0.069480 -0.067906 -161.960999 -2.000000 2.000000 0.000000 -110.415001 126.335999 -4.781910 -19.033400 0.344090 0.044588 -0.091352 -0.102441 -97.244202 -3.103692 2.771952 0.223123 20.367300 3.930173 1.344379 -9.145458 4.849566 0.057365 0.504445 9.677834 -1.162851 11.306617 -2.619081 -0.981354 -5.163689 -5.644756 -1.195199 
-0.880940 44.272057 1.918971 -1.226510 -5.574900 2.481890 -21.872900 3.181730 3.205160 14.576200 2.059050 1.913390 17.918314 -8.034440 -14.255534 14.712200 11.691600 -3.558320 2.000000 -2.000000 0.000000 87.271202 165.964996 0.689507 36.865601 -0.324228 0.082080 0.069550 -0.068055 -162.018997 -2.000000 2.000000 0.000000 -110.272003 123.759003 -0.072106 -20.254101 0.343110 0.047332 -0.086491 -0.096280 -100.046997 -3.487023 2.788233 0.015933 20.426834 3.878777 1.345475 -9.101268 4.769970 0.071162 0.284808 9.664062 -1.177477 11.081655 -2.551270 -0.979490 -4.909019 -5.746200 -1.225089 
-0.894363 44.282761 1.892460 -1.118550 -5.565350 2.451730 -21.342800 3.113000 3.271240 15.592800 1.945810 1.960040 17.778316 -8.312960 -14.587404 14.765200 11.766400 -3.583020 2.000000 -2.000000 0.000000 87.261902 166.845001 0.388812 36.338299 -0.324978 0.081070 0.069515 -0.067980 -161.990005 -2.000000 2.000000 0.000000 -112.082001 120.191002 2.384800 -21.650600 0.341919 0.050444 -0.082926 -0.091333 -102.224998 -3.574217 2.776363 -0.009278 20.310383 3.861045 1.333365 -8.996517 4.870920 0.104139 0.160595 9.637571 -1.062345 11.028031 -2.524577 -0.988222 -4.819936 -5.638580 -1.205944 
-0.907785 44.293457 1.865926 -1.010610 -5.555780 2.421610 -20.812401 3.037840 3.348490 16.619101 1.831610 2.002920 17.639280 -8.589305 -14.910187 14.818700 11.850800 -3.603800 2.000000 -2.000000 0.000000 87.252701 167.733994 0.097913 35.820702 -0.325706 0.080072 0.069480 -0.067906 -161.960999 -2.000000 2.000000 0.000000 -113.758003 116.593002 4.918130 -23.047100 0.340652 0.053525 -0.079551 -0.086254 -104.402000 -3.707336 2.766670 -0.032823 20.270283 3.865119 1.344026 -8.902724 4.947627 0.125096 0.025890 9.629187 -0.947529 11.027831 -2.529112 -1.008124 -4.722497 -5.510080 -1.188070 
